<?xml version="1.0" encoding="utf-8"?>
<!-- Generator: Adobe Illustrator 27.5.0, SVG Export Plug-In . SVG Version: 6.00 Build 0)  -->
<svg version="1.1" xmlns="http://www.w3.org/2000/svg" xmlns:xlink="http://www.w3.org/1999/xlink" x="0px" y="0px"
	 viewBox="0 0 2500 2000" style="enable-background:new 0 0 2500 2000;" xml:space="preserve">
<g id="BG">
	<g>
		<rect x="0" y="0" style="fill:#FFFFFF;" width="2500" height="2000"/>
	</g>
	<ellipse style="opacity:0.11;fill:#FF2171;" cx="1288.999" cy="1867.287" rx="562.369" ry="51.75"/>
</g>
<g id="Layer_1">
	<g>
		<path style="fill:#FF4D61;" d="M1393.152,400.716c199.766,27.596,373.906,128.913,464.57,309.013
			c106.325,211.211,83.473,529.465-100.165,697.149c-185.519,169.402-452.738,200.508-685.327,129.727
			c-16.682-5.077-33.191-10.717-49.475-16.958c-110.295-42.275-215.377-107.476-283.221-204.167
			c-62.148-88.573-89.124-198.503-90.351-306.698c-3.039-268.041,184.001-499.662,434.766-582.477
			C1181.015,394.249,1288.403,386.246,1393.152,400.716z"/>
		<path style="fill:#EA3B54;" d="M1381.514,1486.03c-26.239,0.557-52.495,0.04-78.697-1.74
			c-134.338-9.125-276.811-51.557-392.227-121.331c-129.163-78.084-183.366-219.698-219.288-359.293
			c-7.719-29.997-27.112-133.241-19.602-159.143c-15.198,52.419-23.16,107.507-22.516,164.26
			c1.226,108.196,28.202,218.124,90.351,306.698c67.844,96.691,172.926,161.893,283.221,204.168
			c16.282,6.242,32.79,11.881,49.472,16.956c192.281,58.505,504.803,61.501,650.483-105.99
			c-27.453,31.563-162.387,37.638-203.484,43.568C1473.63,1480.762,1427.599,1485.052,1381.514,1486.03z"/>
		<path style="fill:#841918;" d="M994.723,1071.313c-18.592-66.029-19.901-136.188,4.752-200.892
			c24.013-63.026,71.872-113.864,129.324-148.066c99.271-59.098,232.527-75.519,338.493-24.161
			c56.977,27.615,103.191,74.397,128.191,132.817c28.221,65.949,29.745,141.871,12.721,210.877
			c-16.477,66.792-50.523,125.26-106.234,166.609c-50.817,37.716-113.139,60.721-176.02,66.909
			c-69.357,6.825-142.159-6.475-202.979-41.067C1059.972,1198.51,1015.327,1140.581,994.723,1071.313
			c-5.085-17.093-31.9-9.814-26.784,7.384c41.273,138.754,169.295,221.266,310.863,226.022
			c138.344,4.648,283.498-68.253,337.844-199.754c57.113-138.196,34.969-311.235-90.617-403.816
			c-106.314-78.373-255.234-75.744-371.926-23.221c-72.059,32.434-135.692,87.229-170.28,159.122
			c-36.44,75.742-38.434,161.561-15.884,241.646C972.776,1095.877,999.584,1088.577,994.723,1071.313z"/>
		<path style="fill:#FFFFFF;" d="M1809.287,775.525c2.98,4.631,5.559,9.49,7.732,14.551c-0.467-1.106-0.933-2.212-1.4-3.318
			c2.697,6.392,4.711,13.029,6.011,19.844c0.622,3.262,3.605,6.675,6.382,8.3c2.977,1.742,7.364,2.48,10.702,1.4
			c3.36-1.088,6.603-3.17,8.3-6.382c1.824-3.453,2.133-6.86,1.4-10.702c-2.538-13.307-7.815-26.324-15.143-37.712
			c-1.942-3.018-4.786-5.415-8.3-6.382c-3.324-0.916-7.751-0.502-10.702,1.4c-2.965,1.912-5.576,4.759-6.382,8.3
			C1807.077,768.38,1807.255,772.367,1809.287,775.525L1809.287,775.525z"/>
		<g>
			<path style="fill:#FFFFFF;" d="M1844.226,858.071c17.873,0,17.902-27.776,0-27.776
				C1826.353,830.294,1826.324,858.071,1844.226,858.071L1844.226,858.071z"/>
		</g>
		<path style="fill:#841918;" d="M1389.46,414.108c147.757,20.988,285.095,93.102,383.486,205.788
			c95.668,109.566,147.558,253.238,139.904,398.806c-5.997,114.036-46.9,227.414-119.791,315.845
			c-61.672,74.82-143.537,131.257-233.51,166.737c-181.23,71.464-395.69,67.337-573.492-12.87
			c-86.013-38.801-164.603-96.192-221.736-171.878c-61.615-81.625-95.123-180.555-100.447-282.39
			c-7.894-150.996,46.501-298.804,146.532-411.706c110.689-124.93,268.32-202.061,434.838-213.194
			c49.38-3.301,98.877-1.196,147.908,5.359c17.66,2.361,17.486-25.438,0-27.776c-184.366-24.648-370.801,20.85-517.607,136.177
			c-124.093,97.484-212.18,240.465-234.364,397.496c-16.568,117.28,1.54,240.442,57.734,345.267
			c47.29,88.215,120.581,160.341,206.089,211.626c176.249,105.707,401.469,128.531,597.958,72.342
			c98.103-28.054,190.796-77.14,265.039-147.631c78.598-74.627,132.69-171.79,157.421-277.137
			c34.922-148.756,10.367-306.213-68.655-437.046c-78.176-129.432-203.696-226.977-346.954-274.358
			c-36.797-12.17-74.608-20.79-112.967-26.239C1379.36,384.841,1371.806,411.601,1389.46,414.108z"/>
		<path style="fill:#FFFFFF;" d="M1678.898,865.01c-17.67-81.264-65.272-150.928-131.84-199.835
			c-118.947-87.394-284.391-81.552-413.984-23.223c-77.819,35.025-147.929,96.545-185.226,174.069
			c-41.378,86.007-45.816,182.366-20.084,273.751c22.995,77.31,69.376,142.122,135.168,188.642
			c62.127,43.929,140.386,65.433,215.871,67.969c76.569,2.573,154.968-17.374,221.808-54.556
			c71.512-39.779,125.305-100.285,156.212-175.785C1689.048,1037.326,1696.974,948.142,1678.898,865.01z M1281.489,712.292
			C1272.902,713.72,1277.708,712.825,1281.489,712.292L1281.489,712.292z M1191.015,737.074
			C1193.366,736.088,1195.838,735.152,1191.015,737.074L1191.015,737.074z M1023.801,943.27c0.042-0.648,0.183-1.797,0.324-2.879
			c0.492-3.089,0.983-6.178,1.566-9.253c3.228-17.045,8.348-33.269,13.959-49.639c0.21-0.614,0.698-1.804,1.143-2.869
			c1.329-2.933,2.662-5.862,4.082-8.755c3.296-6.703,6.842-13.278,10.65-19.707c4.291-7.242,8.972-14.197,13.769-21.107
			c0.539-0.776,0.909-1.309,1.299-1.868c3.53-4.428,7.202-8.748,10.989-12.959c11.164-12.42,23.353-23.799,36.246-34.395
			c1.078-0.868,2.313-1.851,2.67-2.112c3.552-2.573,7.12-5.12,10.75-7.585c6.073-4.12,12.271-8.06,18.577-11.813
			c12.75-7.588,25.952-14.054,39.325-20.442c0.395-0.186,0.963-0.434,1.556-0.685c2.607-1.041,5.208-2.092,7.834-3.086
			c7.665-2.906,15.416-5.581,23.241-8.019c13.537-4.218,27.291-7.731,41.19-10.531c6.293-1.265,12.62-2.282,18.947-3.34
			c0.614-0.085,1.182-0.156,1.622-0.197c5.183-0.499,10.353-1.061,15.551-1.434c13.297-0.956,26.645-1.248,39.972-0.831
			c7.361,0.231,14.72,0.675,22.056,1.343c2.93,0.268,5.842,0.617,8.768,0.905c0.597,0.061,1.055,0.102,1.485,0.136
			c0.815,0.183,1.843,0.407,3.316,0.705c13.607,2.753,27.066,5.5,40.366,9.548c6.948,2.116,13.705,4.693,20.568,7.042
			c0.499,0.17,1.211,0.451,1.922,0.736c2.919,1.302,5.84,2.594,8.717,3.987c8.884,4.306,17.448,9.223,25.847,14.417
			c-141.07,119.253-277.704,243.655-409.531,373.053c-3.723-5.961-7.371-11.969-10.645-18.191c-1.848-3.509-3.631-7.049-5.33-10.636
			c-0.658-1.387-6.178-15.719-2.102-4.438c-3.375-9.345-6.768-18.598-9.604-28.135c-4.583-16.272-8.385-32.791-10.779-49.541
			c-0.052-0.658-0.1-1.251-0.175-2.156c-0.341-4.232-0.756-8.453-1.021-12.691c-0.576-9.226-0.785-18.469-0.6-27.712
			C1022.489,959.803,1023.25,951.577,1023.801,943.27z M1575.899,987.016c-0.205,2.258-0.464,4.516-0.709,6.771
			c-0.136,0.329-1.473,9.989-1.587,10.64c-1.556,8.856-3.421,17.655-5.574,26.386c-4.065,16.475-9.319,32.635-15.493,48.439
			c-0.709,1.414-4.65,10.589-5.715,12.742c-4.225,8.568-8.928,16.909-14.091,24.948c-1.712,2.665-3.474,5.306-5.281,7.91
			c-0.568,0.821-4.243,5.527-5.4,7.093c-3.168,3.801-6.34,7.602-9.701,11.237c-5.381,5.825-11.009,11.413-16.843,16.784
			c-2.924,2.692-5.912,5.31-8.941,7.883c-1.258,1.068-7.658,5.89-8.819,6.856c-10.743,7.585-21.704,14.776-33.213,21.188
			c-7.037,3.923-14.22,7.598-21.51,11.03c-1.546,0.729-3.109,1.421-4.667,2.126c0.219-0.163-7.078,2.963-8.828,3.625
			c-15.099,5.723-30.568,10.494-46.269,14.261c-7.037,1.688-14.119,3.18-21.239,4.476c-3.94,0.715-7.904,1.285-11.85,1.97
			c13.108-2.272-2.416,0.183-4.218,0.359c-17.206,1.695-34.537,2.167-51.806,1.35c-9.094-0.431-18.177-1.289-27.215-2.394
			c-0.466-0.085-0.776-0.142-1.349-0.244c-4.755-0.861-9.523-1.648-14.259-2.607c-17.045-3.455-33.861-8.09-50.226-13.986
			c-3.248-1.17-6.458-2.441-9.67-3.709c-0.422-0.19-1.021-0.454-1.829-0.814c126.015-123.287,256.401-242.024,390.837-356.069
			c1.27,3.631,2.573,7.246,3.745,10.914c2.435,7.632,4.566,15.353,6.405,23.148c1.926,8.161,3.475,16.431,4.735,24.721
			c0.144,1.136,0.285,2.296,0.324,2.821c0.476,6.276,1.088,12.525,1.39,18.815C1577.845,952.791,1577.457,969.961,1575.899,987.016z
			"/>
	</g>
</g>
</svg>
